<?xml version="1.0" encoding="UTF-8"?>
<svg version="1.1" xmlns="http://www.w3.org/2000/svg" width="64" height="64">
<path d="M0 0 C0.62777344 0.39445313 1.25554688 0.78890625 1.90234375 1.1953125 C6.37956232 4.45354281 8.61153561 9.15646065 11 14 C11.495 14.99 11.495 14.99 12 16 C12.1509482 18.45290828 12.23128564 20.85858009 12.25 23.3125 C12.27578125 24.62863281 12.3015625 25.94476562 12.328125 27.30078125 C11.99044348 31.10773836 11.23489942 32.95936052 9 36 C7.68 35.67 6.36 35.34 5 35 C5.144375 34.34 5.28875 33.68 5.4375 33 C6.12299916 29.34400449 6.56175515 25.69377805 7 22 C6.608125 23.19625 6.21625 24.3925 5.8125 25.625 C4.41028523 29.90544508 1.93099332 32.65166393 -1 36 C-0.14535156 36.79664063 0.70929687 37.59328125 1.58984375 38.4140625 C2.70638528 39.48369052 3.82223463 40.55404143 4.9375 41.625 C5.50146484 42.14707031 6.06542969 42.66914062 6.64648438 43.20703125 C9.40192102 45.87996979 10.85018279 47.50140832 11.9765625 51.25 C12 54 12 54 10.4375 56.375 C7.29157861 58.47228093 5.73727358 58.42489785 2 58 C-0.81640625 56.20703125 -0.81640625 56.20703125 -3.5625 53.8125 C-4.47128906 53.03519531 -5.38007812 52.25789063 -6.31640625 51.45703125 C-9 49 -9 49 -11.5390625 46.15625 C-13.76286025 43.7413419 -13.76286025 43.7413419 -16.45703125 43.94921875 C-17.23433594 44.19285156 -18.01164062 44.43648437 -18.8125 44.6875 C-19.60269531 44.91824219 -20.39289062 45.14898437 -21.20703125 45.38671875 C-21.79871094 45.58910156 -22.39039062 45.79148438 -23 46 C-21.02 46.66 -19.04 47.32 -17 48 C-17 48.99 -17 49.98 -17 51 C-25.32075472 51.16981132 -25.32075472 51.16981132 -29.25 50.1875 C-34.39262915 49.93036854 -38.13597285 51.7619187 -42.81640625 53.7734375 C-45.90941903 54.96510132 -48.722249 55.5761104 -52 56 C-51.59734062 52.05393805 -51.00720082 49.01606337 -49.375 45.375 C-47.89295202 41.73724587 -47.70272732 40.61383103 -49 37 C-49.50402344 36.11183594 -50.00804687 35.22367188 -50.52734375 34.30859375 C-53.33244993 28.0064056 -53.18801489 20.02097346 -51.23828125 13.421875 C-50.29453957 11.46724796 -49.26380174 9.76139615 -48 8 C-47.443125 7.13375 -46.88625 6.2675 -46.3125 5.375 C-33.36239579 -7.92510703 -15.59646613 -9.95316465 0 0 Z " fill="#FCD682" transform="translate(52,6)"/>
<path d="M0 0 C0.62777344 0.39445313 1.25554688 0.78890625 1.90234375 1.1953125 C6.37956232 4.45354281 8.61153561 9.15646065 11 14 C11.495 14.99 11.495 14.99 12 16 C12.1509482 18.45290828 12.23128564 20.85858009 12.25 23.3125 C12.27578125 24.62863281 12.3015625 25.94476562 12.328125 27.30078125 C11.99044348 31.10773836 11.23489942 32.95936052 9 36 C7.68 35.67 6.36 35.34 5 35 C5.52268466 32.23723823 6.10869587 29.6739124 7 27 C7.83148329 20.2118249 6.50049169 14.84935583 3 9 C-0.70323756 4.61458711 -5.02282786 0.85062061 -10.625 -0.75 C-22.14908304 -1.60363578 -31.06485155 -1.25652191 -40.375 6.25 C-45.40504247 11.04585021 -48.13027978 15.80831598 -48.5625 22.8125 C-48.39309401 28.04795192 -46.28859911 31.91247862 -43.9921875 36.53125 C-43 39 -43 39 -43.5 42.25 C-43.995 43.1575 -44.49 44.065 -45 45 C-45.55174097 46.28739561 -46.0932631 47.57921397 -46.625 48.875 C-47.07875 49.90625 -47.5325 50.9375 -48 52 C-47.32453125 51.65066406 -46.6490625 51.30132812 -45.953125 50.94140625 C-45.06109375 50.48636719 -44.1690625 50.03132813 -43.25 49.5625 C-42.36828125 49.11003906 -41.4865625 48.65757813 -40.578125 48.19140625 C-35.92330596 46.04031563 -32.63181412 45.93950201 -27.5 46.375 C-25.81390625 46.51035156 -25.81390625 46.51035156 -24.09375 46.6484375 C-21.62282772 46.92922412 -19.38105552 47.31136139 -17 48 C-17 48.99 -17 49.98 -17 51 C-25.32075472 51.16981132 -25.32075472 51.16981132 -29.25 50.1875 C-34.39262915 49.93036854 -38.13597285 51.7619187 -42.81640625 53.7734375 C-45.90941903 54.96510132 -48.722249 55.5761104 -52 56 C-51.59734062 52.05393805 -51.00720082 49.01606337 -49.375 45.375 C-47.89295202 41.73724587 -47.70272732 40.61383103 -49 37 C-49.50402344 36.11183594 -50.00804687 35.22367188 -50.52734375 34.30859375 C-53.33244993 28.0064056 -53.18801489 20.02097346 -51.23828125 13.421875 C-50.29453957 11.46724796 -49.26380174 9.76139615 -48 8 C-47.443125 7.13375 -46.88625 6.2675 -46.3125 5.375 C-33.36239579 -7.92510703 -15.59646613 -9.95316465 0 0 Z " fill="#303A6A" transform="translate(52,6)"/>
<path d="M0 0 C10.28126916 1.25381331 15.78149274 5.90813322 23 13 C23.73605469 13.7115625 24.47210938 14.423125 25.23046875 15.15625 C29.96559064 20.07094737 29.96559064 20.07094737 30.125 24.375 C29 27 29 27 26 29 C22.21773437 29.50395572 20.49030117 29.30368373 17.21875 27.27734375 C2.17718735 14.33209084 2.17718735 14.33209084 0 4 C0 2.68 0 1.36 0 0 Z " fill="#363D6A" transform="translate(34,35)"/>
<path d="M0 0 C8.15102708 1.67645238 12.57287765 5.88005353 18 12 C17.05192147 14.44920287 16.50345601 15.72529046 14.16015625 17.00390625 C12 17 12 17 9.74609375 15.33984375 C0 5.19796954 0 5.19796954 0 0 Z " fill="#F5B672" transform="translate(38,39)"/>
<path d="M0 0 C1.67542976 0.28604898 3.34385343 0.61781233 5 1 C4.67 2.65 4.34 4.3 4 6 C2.35 6 0.7 6 -1 6 C-1.042721 4.33388095 -1.04063832 2.66617115 -1 1 C-0.67 0.67 -0.34 0.34 0 0 Z " fill="#40466D" transform="translate(30,25)"/>
<path d="M0 0 C0.99 0.33 1.98 0.66 3 1 C3.8125 2.9375 3.8125 2.9375 4 5 C3.34 5.66 2.68 6.32 2 7 C-0.0625 6.75 -0.0625 6.75 -2 6 C-2.33 5.34 -2.66 4.68 -3 4 C-2.01 2.68 -1.02 1.36 0 0 Z " fill="#DDA771" transform="translate(57,54)"/>
<path d="M0 0 C1.65 0.33 3.3 0.66 5 1 C4.67 2.65 4.34 4.3 4 6 C2.35 5.67 0.7 5.34 -1 5 C-0.67 3.35 -0.34 1.7 0 0 Z " fill="#3F456D" transform="translate(18,25)"/>
<path d="M0 0 C1.65 0.33 3.3 0.66 5 1 C4.67 2.65 4.34 4.3 4 6 C2.35 5.67 0.7 5.34 -1 5 C-0.67 3.35 -0.34 1.7 0 0 Z " fill="#3E446C" transform="translate(41,25)"/>
</svg>
